<?xml version="1.0" encoding="utf-8"?>
<!-- Generator: Adobe Illustrator 25.4.1, SVG Export Plug-In . SVG Version: 6.00 Build 0)  -->
<svg version="1.1" id="Layer_1" xmlns="http://www.w3.org/2000/svg" xmlns:xlink="http://www.w3.org/1999/xlink" x="0px" y="0px"
	 viewBox="0 0 5000 5000" style="enable-background:new 0 0 5000 5000;" xml:space="preserve">
<style type="text/css">
	.st0{fill:#919191;}
	.st1{fill:#494949;}
	.st2{fill:#D6D6D6;}
	.st3{fill:#B2B2B2;}
</style>
<path class="st0" d="M813.21,2500c0,178.74,27.8,350.98,79.32,512.64l-246.77,131.89C575.6,2942.65,537.47,2725.78,537.47,2500
	c0-294.32,64.79-573.51,180.89-824.08l249.98,116.54C868.77,2007.63,813.21,2247.33,813.21,2500z"/>
<path class="st1" d="M4026.69,3218.2l249.98,116.53c-312.88,664.8-987.91,1125.5-1770.79,1127.79v-275.75
	C3178.12,4184.49,3757.73,3788.95,4026.69,3218.2z"/>
<path class="st2" d="M2494.12,537.48v275.75c-672.24,2.28-1251.85,397.82-1520.81,968.57l-249.98-116.53
	C1036.21,1000.47,1711.24,539.77,2494.12,537.48z"/>
<path class="st3" d="M2494.12,4186.77v275.75c-851.63-2.5-1575.64-547.44-1844.67-1307.48l246.51-131.75
	C1115.57,3696.94,1747.75,4184.23,2494.12,4186.77z"/>
<path class="st3" d="M4462.53,2500c0,294.32-64.79,573.51-180.89,824.08l-249.98-116.54c99.57-215.17,155.13-454.87,155.13-707.54
	c0-929.63-752.02-1683.61-1680.91-1686.77V537.48C3587.06,540.65,4462.53,1418.08,4462.53,2500z"/>
</svg>
